# xmcd CD database file
#
# Track frame offsets:
#	150
#	11375
#	24107
#	37062
#	50312
#	62350
#	75537
#	89602
#	102262
#	114930
#	129250
#	141265
#	155387
#	168100
#	182202
#	194500
#	206837
#	216917
#	230112
#	241387
#	254237
#	265675
#	278040
#
# Disc length: 3889 seconds
#
# Revision: 1
# Processed by: cddbd v1.5.1PL0 Copyright (c) Steve Scherf et al.
# Submitted via: CDex 1.50
#
DISCID=400f2f17
DTITLE=Tex Morton - Tex Morton Regal Zonophone Collection Vol 1 1936 - 1938 CD 2
DYEAR=1993
DGENRE=Country
TTITLE0=Across The Great Divide
TTITLE1=Why Should I Work?
TTITLE2=The End Of The Hobo's Trail
TTITLE3=The Railroad Bum
TTITLE4=Fanny Bay Blues
TTITLE5=Barnable Bill The Sailor No 2
TTITLE6=Peg-Leg Jack
TTITLE7=My Sweetheart's In Love With A Swiss Mountaineer
TTITLE8=The Big Rock Candy Mountains
TTITLE9=Rocking Alone In An Old Rocking Chair
TTITLE10=There Are Tear Stains ON Your Letter, Mother Dear
TTITLE11=The Greatest Mistake Of My Life
TTITLE12=I'm Dreaming Tonight Of The Old Folks
TTITLE13=The Letter Edged In Black
TTITLE14=The Yellow Rose Of Texas
TTITLE15=My Blueridge Mountain Home
TTITLE16=Weeping Willow Tree
TTITLE17=When It's Night Time In Nevada
TTITLE18=Red River Valley
TTITLE19=I Left My Heart In Red River Valley
TTITLE20=Bird In A Gilded Cage
TTITLE21=Sergeant Small
TTITLE22=The Martins And The Coys
EXTD=YEAR: 1993
EXTT0=
EXTT1=
EXTT2=
EXTT3=
EXTT4=
EXTT5=
EXTT6=
EXTT7=
EXTT8=
EXTT9=
EXTT10=
EXTT11=
EXTT12=
EXTT13=
EXTT14=
EXTT15=
EXTT16=
EXTT17=
EXTT18=
EXTT19=
EXTT20=
EXTT21=
EXTT22=
PLAYORDER=
